PathFileType	4	(X/Y/Z)	C:/Users/opensim2020/Desktop/walking_exp_matlab/subject02_walking04_straight_04.trc																																																																																																																												
DataRate	CameraRate	NumFrames	NumMarkers	Units	OrigDataRate	OrigDataStartFrame	OrigNumFrames																																																																																																																								
100	100	6	42	mm	100	3073	239																																																																																																																								
Frame#	Time	LFHD			RFHD			LBHD			RBHD			C7			T10			CLAV			STRN			RBAK			LSHO			LUPA			LELB			LFRM			LWRA			LWRB			LFIN			RSHO			RUPA			RELB			RFRM			RWRA			RWRB			RFIN			LASI			RASI			LPSI			RPSI			LTHI			LKNE			LTIB			LANK			LHEE			LTOE			RTHI			RKNE			RTIB			RANK			RHEE			RTOE			*39			*40			*41		
		X1	Y1	Z1	X2	Y2	Z2	X3	Y3	Z3	X4	Y4	Z4	X5	Y5	Z5	X6	Y6	Z6	X7	Y7	Z7	X8	Y8	Z8	X9	Y9	Z9	X10	Y10	Z10	X11	Y11	Z11	X12	Y12	Z12	X13	Y13	Z13	X14	Y14	Z14	X15	Y15	Z15	X16	Y16	Z16	X17	Y17	Z17	X18	Y18	Z18	X19	Y19	Z19	X20	Y20	Z20	X21	Y21	Z21	X22	Y22	Z22	X23	Y23	Z23	X24	Y24	Z24	X25	Y25	Z25	X26	Y26	Z26	X27	Y27	Z27	X28	Y28	Z28	X29	Y29	Z29	X30	Y30	Z30	X31	Y31	Z31	X32	Y32	Z32	X33	Y33	Z33	X34	Y34	Z34	X35	Y35	Z35	X36	Y36	Z36	X37	Y37	Z37	X38	Y38	Z38	X39	Y39	Z39	X40	Y40	Z40	X41	Y41	Z41	X42	Y42	Z42
																																																																																																																															
150	1.49	337.38083	1719.30676	-1470.33826	323.25507	1700.07507	-1327.75952	196.44342	1668.69287	-1489.4502	170.88116	1650.7887	-1348.2417	116.38406	1529.73083	-1410.31738	50.35539	1252.84729	-1395.29492	250.06081	1451.00391	-1427.81348	294.86578	1279.93591	-1412.24744	54.36469	1358.62927	-1333.62036	169.87924	1491.41199	-1592.88013	112.64685	1297.97546	-1667.18567	82.43534	1160.78735	-1676.84082	67.42153	1030.01392	-1694.8147	107.97347	895.24884	-1677.32141	57.59916	906.67328	-1701.34241	65.3058	840.0672	-1708.15894	203.99765	1499.38977	-1229.88586	203.24593	1315.47424	-1128.51758	244.65712	1174.55566	-1099.79651	304.47	1070.76001	-1080.90942	385.4935	963.2594	-1099.43469	343.72864	947.33795	-1063.88232	399.27765	901.22717	-1060.57458	284.45676	991.41602	-1532.7948	281.29016	974.80878	-1274.85168	73.63201	1030.73914	-1452.94141	67.20781	1030.71167	-1338.7738	278.74704	690.21252	-1610.2113	315.74979	494.27283	-1587.53223	297.23044	301.03748	-1590.89526	349.55191	81.37102	-1577.99817	331.26044	48.34447	-1521.16748	502.06885	68.01859	-1613.90784	178.4668	667.19031	-1227.76733	152.48965	459.12317	-1277.08301	87.21555	281.26477	-1276.96191	47.43186	92.64719	-1322.70825	9.39093	39.55073	-1379.80005	195.65715	35.33311	-1304.60913	242.01491	1801.70276	-1386.5741	-2844.98901	1033.87292	3360.12915	NaN	NaN	NaN
151	1.5	345.70758	1717.86377	-1471.3938	331.77863	1698.87061	-1328.83569	204.94623	1667.38599	-1490.22278	179.39958	1649.64197	-1349.04138	124.73601	1528.54712	-1411.12244	58.56709	1251.6637	-1396.28662	258.46439	1449.72998	-1428.53552	303.23657	1278.67395	-1412.69434	62.75721	1357.51306	-1334.34277	178.3235	1489.94348	-1593.65759	119.68208	1297.02905	-1667.79944	88.41032	1160.07983	-1677.1261	71.42633	1029.66528	-1695.23694	109.96964	894.35425	-1678.6261	59.73989	906.51208	-1702.10107	66.23302	839.81201	-1709.08716	212.02489	1498.36084	-1230.74365	212.12276	1313.90869	-1129.85535	255.55705	1173.8894	-1100.38513	316.54556	1070.18518	-1081.73096	398.28296	964.01428	-1100.18835	357.05173	947.70129	-1064.57458	412.95474	902.30414	-1061.25952	293.35989	990.06525	-1532.85217	289.1673	973.86981	-1274.88379	82.15765	1029.45654	-1454.01575	75.0373	1029.48853	-1339.89124	286.50299	688.60809	-1610.51514	325.82318	493.1539	-1587.7218	313.66632	299.46475	-1592.56287	373.59378	81.40382	-1580.67847	355.75797	46.79858	-1524.66943	527.39429	72.89419	-1613.77869	184.39114	666.28644	-1228.18164	156.73991	458.21631	-1277.61255	89.62373	281.27222	-1277.24976	48.01971	93.00035	-1322.98511	9.65951	39.9959	-1380.14954	195.58321	35.29584	-1304.6001	250.64684	1800.44043	-1387.64758	-2845.15161	1033.79846	3360.26953	NaN	NaN	NaN
152	1.51	354.15546	1716.5321	-1472.5542	340.3042	1697.53735	-1329.93665	213.33157	1666.01038	-1491.25354	187.8456	1648.44482	-1350.03455	133.06065	1527.25171	-1412.05981	66.79498	1250.4342	-1397.44409	266.97629	1448.43567	-1429.4043	311.60022	1277.35681	-1413.28809	71.08298	1356.24902	-1335.40173	186.76613	1488.46045	-1594.5553	127.21845	1295.75488	-1668.21741	94.566	1159.40479	-1677.71582	75.78369	1029.14709	-1695.88098	112.4939	893.23132	-1679.80566	62.42532	906.30682	-1703.0448	67.59093	839.39478	-1710.03894	220.00522	1497.22449	-1231.8269	221.90443	1312.80554	-1130.59021	266.29178	1173.14587	-1101.13464	327.3887	1069.96277	-1082.87781	410.99881	964.5647	-1101.06494	369.78323	947.90558	-1065.34363	426.49777	903.10651	-1061.87695	302.27887	988.59528	-1532.82141	297.15643	972.56061	-1274.89148	90.74918	1028.11145	-1455.15991	82.97232	1028.26111	-1341.12915	294.44086	687.1792	-1610.9917	335.84698	491.97433	-1588.09521	329.64798	298.04288	-1594.18164	396.72794	81.75007	-1583.06519	379.43759	46.62581	-1527.13159	551.47516	77.72312	-1613.3822	190.4537	665.36719	-1228.69275	161.27914	457.61517	-1277.60889	92.4202	281.40091	-1277.52515	48.61058	93.35319	-1323.25647	9.92329	40.43911	-1380.48511	195.72617	35.26338	-1304.43677	259.16528	1799.16809	-1388.80603	-2845.87573	1033.93469	3357.5061	NaN	NaN	NaN
153	1.52	362.65765	1715.13794	-1473.78027	348.81079	1696.21899	-1331.14258	221.57428	1664.68933	-1492.56897	196.285	1647.12915	-1351.34424	141.61949	1525.88416	-1413.11047	75.07288	1249.15332	-1398.56897	275.55264	1447.09094	-1430.40613	320.12177	1276.01624	-1414.02881	78.96031	1355.04797	-1336.79834	195.35199	1486.8667	-1595.46545	134.57727	1294.72339	-1669.10608	101.33436	1158.4082	-1677.94434	80.7267	1028.69019	-1696.45691	115.55029	892.00751	-1680.98059	65.47314	906.08539	-1704.22278	69.51203	839.06927	-1711.2323	228.24481	1495.99414	-1232.88635	230.48622	1311.30908	-1131.7688	276.70499	1172.26624	-1102.09094	339.79385	1069.9032	-1083.40527	423.52893	965.13098	-1102.1344	382.3963	947.95709	-1066.36401	439.43994	903.77588	-1062.97302	311.27371	987.1051	-1532.79797	305.01889	971.3017	-1274.88184	99.43733	1026.68384	-1456.29932	91.17747	1026.91553	-1342.33362	302.70517	685.68866	-1611.51843	345.8118	490.70135	-1588.55505	345.16592	296.79202	-1595.78857	418.84924	82.40202	-1585.23218	401.61652	46.11342	-1529.92395	574.30408	82.31557	-1612.71167	196.74237	664.55383	-1229.19836	165.76692	456.89816	-1277.97083	94.97813	281.43243	-1277.88635	49.26182	93.78101	-1323.56396	10.18989	40.93752	-1380.93762	195.88481	35.36935	-1304.37219	267.70499	1797.77783	-1389.99609	-2845.72119	1033.84595	3357.23975	NaN	NaN	NaN
154	1.53	371.09457	1713.4917	-1475.01843	357.26157	1694.7821	-1332.33081	230.04964	1663.26184	-1493.75732	204.7437	1645.84619	-1352.41882	150.06169	1524.44519	-1414.24316	83.53461	1247.70496	-1399.80334	284.18817	1445.73376	-1431.46472	328.5528	1274.63538	-1414.78064	87.55315	1353.57019	-1337.79236	203.80557	1485.40979	-1596.60535	142.31485	1293.56201	-1670.04395	107.97116	1157.61707	-1678.71912	85.694	1028.33179	-1697.64966	118.80843	891.13214	-1682.76343	68.87415	905.88049	-1705.58142	72.05547	838.58173	-1712.34106	237.05817	1494.48218	-1233.53479	241.10362	1310.06519	-1131.98645	287.25604	1171.22827	-1103.08105	350.2836	1069.31628	-1084.95447	435.82648	965.36584	-1103.28198	394.71951	947.87488	-1067.58752	452.06018	904.19507	-1064.15564	320.41177	985.58179	-1532.84851	313.11365	969.84204	-1274.89014	108.12876	1025.17432	-1457.54065	99.51411	1025.53027	-1343.56677	311.44449	684.25897	-1612.15491	355.80051	489.41248	-1588.97644	359.93082	295.89252	-1597.5658	440.02682	82.94544	-1586.90698	422.72171	46.39712	-1532.54395	595.71136	86.6665	-1611.95032	203.00276	663.68304	-1229.73193	170.33899	456.15875	-1278.27307	97.26577	281.37576	-1278.22705	49.86984	94.29807	-1323.88074	10.50296	41.6188	-1381.36279	195.93259	35.20897	-1304.20374	276.27008	1796.42236	-1391.31726	-2845.22852	1033.67834	3360.20068	NaN	NaN	NaN
155	1.54	379.88452	1711.89734	-1476.01575	365.75058	1693.32813	-1333.62793	238.77783	1661.74438	-1494.74353	213.30078	1644.47473	-1353.69531	158.50215	1522.96155	-1415.46338	92.09632	1246.27856	-1401.07031	292.65399	1444.22559	-1432.64172	337.17557	1273.25061	-1415.75085	95.75397	1352.26013	-1339.54944	212.31564	1483.89685	-1597.80884	150.36623	1292.17004	-1670.8584	114.96338	1156.73645	-1679.61279	91.24388	1027.83789	-1698.9668	122.66002	890.16211	-1684.48572	72.85008	905.6416	-1707.14246	74.85536	838.28674	-1713.9646	245.30441	1493.17273	-1234.92114	249.67877	1308.68445	-1133.73181	297.58167	1170.07898	-1104.23816	361.879	1068.6134	-1086.073	447.6554	965.47675	-1104.68384	406.72861	947.58307	-1069.02283	464.5437	904.57288	-1065.4762	329.58701	984.03583	-1532.94727	321.33377	968.29309	-1275.06262	116.88328	1023.6582	-1458.76965	108.00134	1024.08191	-1344.86646	320.73752	682.92731	-1612.76526	365.76682	488.07535	-1589.39905	374.35019	294.85867	-1599.00586	459.5062	83.88983	-1588.74463	442.82162	46.11223	-1534.27808	615.65576	90.64616	-1611.35474	209.32295	662.78363	-1230.31873	175.09538	455.30548	-1278.61597	100.32067	281.50702	-1278.55383	50.51629	94.86701	-1324.16907	10.84416	42.38631	-1381.8717	196.01196	35.1785	-1304.12244	284.80014	1795.021	-1392.68237	-2845.16211	1033.92334	3360.12573	NaN	NaN	NaN
